# xmcd
#
# Track frame offsets: 
#        150
#        10649
#        24523
#        34947
#        47171
#        58720
#        80169
#        97943
#        119917
#        128991
#        140240
#        158089
#        170838
#        185537
#
# Disc length: 2615 seconds
#
# Revision: 5
# Processed by: cddbd v1.5.2PL0 Copyright (c) Steve Scherf et al.
# Submitted via: ExactAudioCopy v0.99pb4
#
DISCID=c80a350e
DTITLE=John Mayall - Thru The Years
DYEAR=1990
DGENRE=Blues
TTITLE0=Crocodile Walk
TTITLE1=My Baby Is Sweeter
TTITLE2=Crawling Up A Hill - Version One
TTITLE3=Mama, Talk To Your Daughter
TTITLE4=Alabama Blues
TTITLE5=Out Of Reach
TTITLE6=Greeny
TTITLE7=Curly
TTITLE8=Missing You
TTITLE9=Please Don't Tell
TTITLE10=Your Funeral And My Trial
TTITLE11=Suspicious (Part One)
TTITLE12=Knockers Step Forward
TTITLE13=Hide And Seek
EXTD=
EXTT0=
EXTT1=
EXTT2=
EXTT3=
EXTT4=
EXTT5=
EXTT6=
EXTT7=
EXTT8=
EXTT9=
EXTT10=
EXTT11=
EXTT12=
EXTT13=
PLAYORDER=
